<?xml version="1.0" encoding="utf-8"?>
<!-- Generator: Adobe Illustrator 15.0.0, SVG Export Plug-In . SVG Version: 6.00 Build 0)  -->
<!DOCTYPE svg PUBLIC "-//W3C//DTD SVG 1.1//EN" "http://www.w3.org/Graphics/SVG/1.1/DTD/svg11.dtd">
<svg version="1.1" id="Layer_1" xmlns="http://www.w3.org/2000/svg" xmlns:xlink="http://www.w3.org/1999/xlink" x="0px" y="0px"
	 width="452.027px" height="393.92px" viewBox="0 0 452.027 393.92" enable-background="new 0 0 452.027 393.92"
	 xml:space="preserve">
<path fill="#748DBD" d="M305.073,273.597v-6.321c0-0.854-0.384-1.623-1.034-2.097c-0.412-0.354-1.004-0.59-1.65-0.59h-3.398
	c-0.649,0-1.211,0.236-1.623,0.59c-0.648,0.474-1.063,1.242-1.063,2.097v15.478c0,0.682,1.947,1.237,4.399,1.237
	c1.892,0,3.483-0.354,4.104-0.855v15.184c0,0.561,0.474,1.031,1.036,1.031c0.591,0,1.03-0.473,1.03-1.031v-24.72L305.073,273.597
	L305.073,273.597z M304.039,281.629c0,0.682-1.478,1.241-3.337,1.241c-1.89,0-3.337-0.562-3.337-1.241v-13.524
	c0.767,0.265,1.979,0.442,3.337,0.442c1.329,0,2.569-0.18,3.337-0.442V281.629z M368.361,267.308
	c10.484-21.206,16.39-45.069,16.39-70.349c0-87.684-71.054-158.736-158.735-158.736S67.278,109.277,67.278,196.959
	c0,25.277,5.906,49.143,16.391,70.349c-16.152,5.964-31.272,12.935-45.154,20.729c14.973-5.996,30.923-11.313,47.667-15.859
	c8.622,15.948,19.872,30.27,33.193,42.381c1.479,1.328,2.982,2.655,4.519,3.929c27.613,23.21,63.229,37.208,102.123,37.208
	c38.894,0,74.513-13.998,102.123-37.208c1.536-1.271,3.043-2.601,4.521-3.929c13.318-12.111,24.569-26.433,33.195-42.381
	c16.744,4.549,32.688,9.863,47.664,15.859C399.635,280.241,384.513,273.271,368.361,267.308z M206.996,338.95
	c-24.601-3.277-47.223-12.787-66.211-26.873c-1.803-1.301-3.544-2.658-5.258-4.075c-13.525-11.045-25.012-24.512-33.757-39.752
	c14.916-3.514,30.389-6.376,46.337-8.592c-3.604,1.651-6.145,3.454-7.146,5.401c-6.38,13.112,5.375,15.891,28.559,15.653v27.376
	c0,1.771,1.419,3.219,3.188,3.219c1.831,0,3.247-1.445,3.247-3.219v-27.493c7.326-0.179,15.537-0.592,24.517-1.004
	C237.532,277.85,211.455,319.163,206.996,338.95z M156.229,268.842c1.148-2.568,5.814-4.989,13.289-7.027v11.604
	C159.39,273.862,154.545,272.562,156.229,268.842z M251.737,313.906h-5.642v2.365h-3.339v2.333h1.624v2.334h-1.624v2.332h3.339
	v2.362h5.642v5.226h-3.986v-0.56h1.652v-2.365h-3.308v-2.301h-5.672v-11.729h5.672v-2.334h3.308v-2.329h-1.623v-2.333h1.623v-2.363
	h-3.308v-2.333h-5.672v-11.694h5.672v2.333h-3.339v2.365h1.624v2.328h-1.624v2.335h3.339v2.333h5.642V313.906z M256.227,330.858
	h-2.039v-42.109c0-0.413-0.269-0.71-0.62-0.71h-15.031c-0.326,0-0.593,0.297-0.593,0.71v42.109h-2.006v-44.031
	c0-0.411,0.32-0.739,0.736-0.739h18.813c0.413,0,0.739,0.328,0.739,0.739V330.858z M316.503,308.002
	c-1.714,1.417-3.458,2.774-5.258,4.075c-7.799,5.788-16.214,10.809-25.131,14.913c-0.387-20.88-9.925-66.653-87.537-56.938
	c-8.771,1.358-16.391,2.361-22.623,2.896v-12.67c20.673-4.283,55.611-6.381,96.189-3.988c0,0,0-0.027-0.029-0.089
	c1.979,0.149,3.957,0.324,5.907,0.504v6.878c0,0.828,0.646,1.479,1.476,1.479c0.857,0,1.507-0.648,1.507-1.479v-6.611
	c24.1,2.333,47.313,6.144,69.253,11.278C341.516,283.49,330.027,296.957,316.503,308.002z M353.566,262.196
	c-22.593-7.235-46.958-12.641-72.563-15.798V212.64h5.522c0.412,0,0.767-0.352,0.767-0.769v-14.025c0-0.413-0.354-0.769-0.767-0.769
	h-6.172l-0.237-12.435h3.276v4.902c0,0.177,0.18,0.354,0.387,0.354c0.176,0,0.352-0.179,0.352-0.354v-4.902h1.805v3.219
	c0,1.122,0.886,2.039,2.008,2.039c1.124,0,2.039-0.917,2.039-2.039v-3.219h1.771v4.902c0,0.177,0.149,0.354,0.354,0.354
	c0.209,0,0.354-0.179,0.354-0.354v-4.902h2.836v4.902c0,0.177,0.181,0.354,0.354,0.354c0.207,0,0.384-0.179,0.384-0.354v-4.902
	h3.279v4.902c0,0.177,0.146,0.354,0.354,0.354c0.204,0,0.354-0.179,0.354-0.354v-4.902h3.011v4.902c0,0.177,0.146,0.354,0.354,0.354
	s0.354-0.179,0.354-0.354v-4.902h3.13v4.902c0,0.177,0.147,0.354,0.354,0.354s0.354-0.179,0.354-0.354v-10.517
	c0-0.205-0.146-0.383-0.354-0.383s-0.354,0.18-0.354,0.383v4.874h-3.13v-4.874c0-0.205-0.146-0.383-0.354-0.383
	s-0.354,0.18-0.354,0.383v4.874h-3.011v-4.874c0-0.205-0.15-0.383-0.354-0.383c-0.209,0-0.354,0.18-0.354,0.383v4.874h-3.279v-4.874
	c0-0.205-0.177-0.383-0.384-0.383c-0.176,0-0.354,0.18-0.354,0.383v4.874h-2.836v-4.874c0-0.205-0.146-0.383-0.354-0.383
	c-0.204,0-0.354,0.18-0.354,0.383v4.874h-1.771v-3.218c0-1.122-0.915-2.012-2.039-2.012c-1.122,0-2.008,0.89-2.008,2.012v3.218
	h-1.805v-4.874c0-0.205-0.176-0.383-0.352-0.383c-0.207,0-0.387,0.18-0.387,0.383v4.874h-3.307l-0.415-19.935h8.035
	c0.203,0,0.383-0.177,0.383-0.354v-2.361c0-0.297-0.234-0.53-0.531-0.53h-1.416c-0.299,0-0.533,0.233-0.533,0.53v1.979h-5.938
	l-0.146-7.058l-0.147,7.058h-6.143v-1.979c0-0.297-0.236-0.53-0.53-0.53h-2.568c-0.299,0-0.534,0.233-0.534,0.53
	c0,0.267,0.235,0.529,0.534,0.529h0.797v1.832c0,0.18,0.178,0.354,0.354,0.354h8.063l-0.683,33.104h-6.172
	c-0.412,0-0.768,0.354-0.768,0.77v14.025c0,0.417,0.354,0.769,0.768,0.769h5.523v33.401c-16.541-1.978-33.642-3.043-51.063-3.07
	v-19.875h2.953c0.208,0,0.413-0.179,0.413-0.413v-7.531c0-0.234-0.205-0.411-0.413-0.411h-3.308l-0.147-6.677h1.771v2.631
	c0,0.117,0.089,0.204,0.208,0.204c0.09,0,0.175-0.087,0.175-0.204v-2.631h0.976v1.742c0,0.591,0.475,1.093,1.093,1.093
	c0.594,0,1.064-0.502,1.064-1.093v-1.742h0.976v2.631c0,0.117,0.088,0.204,0.177,0.204c0.117,0,0.208-0.087,0.208-0.204v-2.631
	h1.506v2.631c0,0.117,0.089,0.204,0.207,0.204s0.205-0.087,0.205-0.204v-2.631h1.744v2.631c0,0.117,0.087,0.204,0.204,0.204
	c0.09,0,0.18-0.087,0.18-0.204v-2.631h1.623v2.631c0,0.117,0.09,0.204,0.208,0.204c0.087,0,0.177-0.087,0.177-0.204v-2.631h1.684
	v2.631c0,0.117,0.086,0.204,0.178,0.204c0.118,0,0.208-0.087,0.208-0.204v-5.644c0-0.117-0.091-0.207-0.208-0.207
	c-0.092,0-0.178,0.09-0.178,0.207v2.629h-1.684v-2.629c0-0.117-0.09-0.207-0.177-0.207c-0.118,0-0.208,0.09-0.208,0.207v2.629
	h-1.623v-2.629c0-0.117-0.09-0.207-0.18-0.207c-0.117,0-0.204,0.09-0.204,0.207v2.629h-1.744v-2.629
	c0-0.117-0.087-0.207-0.205-0.207s-0.207,0.09-0.207,0.207v2.629h-1.506v-2.629c0-0.117-0.091-0.207-0.208-0.207
	c-0.089,0-0.177,0.09-0.177,0.207v2.629h-0.976v-1.743c0-0.59-0.473-1.063-1.064-1.063c-0.618,0-1.093,0.475-1.093,1.063v1.743
	h-0.976v-2.629c0-0.117-0.085-0.207-0.175-0.207c-0.119,0-0.208,0.09-0.208,0.207v2.629h-1.771l-0.325-14.913l-0.473,21.974h-3.276
	c-0.235,0-0.416,0.177-0.416,0.411v7.531c0,0.234,0.18,0.413,0.416,0.413h2.953v19.875c-16.833,0.027-33.342,1.006-49.38,2.836
	v-47.281H187.8c0.943,0,1.683-0.768,1.683-1.685v-30.152c0-0.914-0.738-1.652-1.683-1.652h-13.26l-0.529-26.729h7.086v10.515
	c0,0.441,0.354,0.768,0.799,0.768c0.412,0,0.767-0.325,0.767-0.768v-10.515h3.899v6.94c0,2.42,1.917,4.341,4.341,4.341
	c2.39,0,4.34-1.921,4.34-4.341v-6.94h3.811v10.515c0,0.441,0.354,0.768,0.768,0.768c0.444,0,0.799-0.325,0.799-0.768v-10.515h6.082
	v10.515c0,0.441,0.354,0.768,0.799,0.768c0.413,0,0.769-0.325,0.769-0.768v-10.515h7.058v10.515c0,0.413,0.355,0.768,0.771,0.768
	c0.44,0,0.797-0.354,0.797-0.768v-10.515h6.437v10.515c0,0.413,0.354,0.768,0.799,0.768c0.413,0,0.77-0.354,0.77-0.768v-10.515
	h6.705v10.515c0,0.413,0.352,0.768,0.768,0.768c0.441,0,0.768-0.354,0.768-0.768V126.2c0-0.413-0.324-0.769-0.768-0.769
	c-0.416,0-0.768,0.354-0.768,0.769v10.543h-6.705V126.2c0-0.413-0.354-0.769-0.77-0.769c-0.442,0-0.799,0.354-0.799,0.769v10.543
	h-6.437V126.2c0-0.413-0.355-0.769-0.797-0.769c-0.414,0-0.771,0.354-0.771,0.769v10.543h-7.058V126.2
	c0-0.413-0.354-0.769-0.769-0.769c-0.443,0-0.799,0.354-0.799,0.769v10.543h-6.082V126.2c0-0.413-0.354-0.769-0.799-0.769
	c-0.412,0-0.768,0.354-0.768,0.769v10.543h-3.811v-6.97c0-2.393-1.95-4.342-4.34-4.342c-2.423,0-4.341,1.949-4.341,4.342v6.97
	h-3.899V126.2c0-0.413-0.354-0.769-0.767-0.769c-0.444,0-0.799,0.354-0.799,0.769v10.543h-7.118l-1.24-59.656l-1.8,87.949h-13.263
	c-0.944,0-1.684,0.737-1.684,1.651v30.152c0,0.917,0.738,1.685,1.684,1.685h11.843v48.047c-25.073,3.189-48.904,8.506-71.056,15.623
	C88.45,242.644,82.78,220.466,82.78,196.959c0-79.117,64.115-143.231,143.232-143.231c79.116,0,143.231,64.114,143.231,143.231
	C369.247,220.467,363.577,242.646,353.566,262.196z M289.243,184.645v2.776c0,0.973-0.591,1.742-1.3,1.742
	c-0.707,0-1.298-0.771-1.298-1.742v-2.776H289.243z M286.645,183.906v-2.776c0-0.942,0.591-1.741,1.298-1.741
	c0.709,0,1.3,0.799,1.3,1.741v2.776H286.645z M231.361,208.063v1.477c0,0.535-0.297,0.945-0.682,0.945s-0.709-0.41-0.709-0.945
	v-1.477H231.361z M229.97,207.68v-1.506c0-0.503,0.324-0.917,0.709-0.917s0.682,0.414,0.682,0.917v1.506H229.97z M193.675,136.744
	h-5.551v-5.995c0-2.067,1.211-3.752,2.777-3.752c1.506,0,2.772,1.685,2.772,3.752L193.675,136.744L193.675,136.744z
	 M193.675,138.308v5.938c0,2.096-1.268,3.777-2.772,3.777c-1.566,0-2.777-1.683-2.777-3.777v-5.938H193.675z"/>
</svg>
